<?xml version="1.0" encoding="UTF-8" standalone="no"?>
<!-- Created with Inkscape (http://www.inkscape.org/) -->

<svg
   width="512"
   height="512"
   viewBox="0 0 512 512"
   version="1.1"
   id="svg1"
   sodipodi:docname="icon_white.svg"
   inkscape:version="1.3.2 (091e20e, 2023-11-25, custom)"
   xmlns:inkscape="http://www.inkscape.org/namespaces/inkscape"
   xmlns:sodipodi="http://sodipodi.sourceforge.net/DTD/sodipodi-0.dtd"
   xmlns="http://www.w3.org/2000/svg"
   xmlns:svg="http://www.w3.org/2000/svg">
  <sodipodi:namedview
     id="namedview1"
     pagecolor="#505050"
     bordercolor="#eeeeee"
     borderopacity="1"
     inkscape:showpageshadow="0"
     inkscape:pageopacity="0"
     inkscape:pagecheckerboard="0"
     inkscape:deskcolor="#505050"
     inkscape:document-units="px"
     inkscape:zoom="4.51333"
     inkscape:cx="267.87317"
     inkscape:cy="273.07997"
     inkscape:window-width="1920"
     inkscape:window-height="1094"
     inkscape:window-x="-11"
     inkscape:window-y="-11"
     inkscape:window-maximized="1"
     inkscape:current-layer="layer1" />
  <defs
     id="defs1" />
  <g
     inkscape:label="Layer 1"
     inkscape:groupmode="layer"
     id="layer1">
    <g
       id="g16"
       inkscape:label="pointer"
       transform="matrix(0.72255209,0,0,0.72255209,71.026664,77.26705)">
      <path
         id="path3"
         style="fill:#ffffff;fill-opacity:1;stroke:#ffffff;stroke-width:40;stroke-linecap:round;stroke-linejoin:round;stroke-dasharray:none;stroke-opacity:1;paint-order:markers fill stroke"
         inkscape:transform-center-x="1.3443666e-05"
         inkscape:transform-center-y="23.886965"
         d="M -31.680226 247.7324 L 68.935122 422.00117 L 169.55047 247.7324 L 165.68428 247.7324 A 110.89817 115.86828 0 0 1 68.935122 307.57166 A 110.89817 115.86828 0 0 1 -27.81718 247.7324 L -31.680226 247.7324 z "
         transform="matrix(0.85926955,0,0,0.82241159,196.76615,44.279563)" />
      <path
         id="path2"
         style="fill:#ffffff;fill-opacity:1;stroke:none;stroke-width:29.9592;stroke-linecap:round;stroke-linejoin:round;stroke-dasharray:none;stroke-opacity:1;paint-order:markers fill stroke"
         d="M 256 86.942992 A 114.99632 114.99632 0 0 0 141.00235 201.93795 A 114.99632 114.99632 0 0 0 256 316.9356 A 114.99632 114.99632 0 0 0 370.99766 201.93795 A 114.99632 114.99632 0 0 0 256 86.942992 z M 256 123.81858 A 78.118439 78.118439 0 0 1 334.11937 201.93795 A 78.118439 78.118439 0 0 1 256 280.05731 A 78.118439 78.118439 0 0 1 177.88063 201.93795 A 78.118439 78.118439 0 0 1 256 123.81858 z " />
      <g
         id="g1"
         style="fill:#f78333;fill-opacity:1;stroke:#f78333;stroke-width:40;stroke-dasharray:none;stroke-opacity:1"
         inkscape:label="cross"
         transform="matrix(0.37552335,0,0,0.37552335,159.866,89.430098)">
        <rect
           style="fill:#ffffff;fill-opacity:1;stroke:#ffffff;stroke-width:26.446;stroke-linecap:round;stroke-linejoin:round;stroke-dasharray:none;stroke-opacity:1;paint-order:markers fill stroke"
           id="rect1"
           width="76.498558"
           height="294.74307"
           x="217.75073"
           y="152.23207" />
        <rect
           style="fill:#ffffff;fill-opacity:1;stroke:#ffffff;stroke-width:26.446;stroke-linecap:round;stroke-linejoin:round;stroke-dasharray:none;stroke-opacity:1;paint-order:markers fill stroke"
           id="rect1-0"
           width="76.498558"
           height="294.74307"
           x="261.35431"
           y="-403.37152"
           transform="rotate(90)" />
      </g>
    </g>
  </g>
</svg>
